<?xml version="1.0" encoding="UTF-8"?>
<svg id="svg2" xmlns="http://www.w3.org/2000/svg" xmlns:xlink="http://www.w3.org/1999/xlink" xmlns:svg="http://www.w3.org/2000/svg" xmlns:rdf="http://www.w3.org/1999/02/22-rdf-syntax-ns#" xmlns:dc="http://purl.org/dc/elements/1.1/" xmlns:cc="http://creativecommons.org/ns#" version="1.1" viewBox="0 0 231.55 228.89">
  <!-- Generator: Adobe Illustrator 29.7.1, SVG Export Plug-In . SVG Version: 2.1.1 Build 8)  -->
  <defs>
    <style>
      .st0, .st1, .st2 {
        fill: none;
      }

      .st1 {
        stroke: #fff;
      }

      .st1, .st2 {
        stroke-miterlimit: 5.33;
        stroke-width: 2.31px;
      }

      .st2 {
        stroke: #4d3b56;
      }

      .st3 {
        clip-path: url(#clippath-1);
      }

      .st4 {
        fill: #fff;
      }

      .st5 {
        fill: #4d3b56;
      }

      .st6 {
        clip-path: url(#clippath);
      }
    </style>
    <clipPath id="clippath">
      <rect class="st0" y="0" width="231.55" height="307.96"/>
    </clipPath>
    <clipPath id="clippath-1">
      <rect class="st0" x="8.94" y="6.92" width="215.16" height="215.16" rx="19.6" ry="19.6"/>
    </clipPath>
  </defs>
  <g id="g10">
    <g id="g12">
      <g class="st6">
        <g id="g14">
          <g id="g52">
            <path id="path54" class="st5" d="M224.11,202.48c0,10.78-8.82,19.6-19.6,19.6H28.54c-10.78,0-19.6-8.82-19.6-19.6V26.52c0-10.78,8.82-19.6,19.6-19.6h175.96c10.78,0,19.6,8.82,19.6,19.6v175.96h0Z"/>
          </g>
        </g>
      </g>
    </g>
    <g id="g56">
      <g class="st3">
        <g id="g58">
          <g id="g64">
            <path id="path66" class="st4" d="M69.87,52.5c0,9.29-7.53,16.83-16.83,16.83s-16.83-7.54-16.83-16.83,7.53-16.83,16.83-16.83,16.83,7.54,16.83,16.83"/>
          </g>
          <g id="g68">
            <path id="path70" class="st2" d="M69.87,52.5c0,9.29-7.53,16.83-16.83,16.83s-16.83-7.54-16.83-16.83,7.53-16.83,16.83-16.83,16.83,7.54,16.83,16.83Z"/>
          </g>
          <g id="g72">
            <path id="path74" class="st4" d="M153.88,87.99c0,11.16-9.05,20.21-20.21,20.21s-20.21-9.05-20.21-20.21,9.05-20.22,20.21-20.22,20.21,9.05,20.21,20.22"/>
          </g>
          <g id="g76">
            <path id="path78" class="st2" d="M153.88,87.99c0,11.16-9.05,20.21-20.21,20.21s-20.21-9.05-20.21-20.21,9.05-20.22,20.21-20.22,20.21,9.05,20.21,20.22Z"/>
          </g>
          <g id="g80">
            <path id="path82" class="st4" d="M71.42,85.15c0,10.94-8.87,19.81-19.81,19.81s-19.81-8.87-19.81-19.81,8.87-19.81,19.81-19.81,19.81,8.87,19.81,19.81"/>
          </g>
          <g id="g84">
            <path id="path86" class="st2" d="M71.42,85.15c0,10.94-8.87,19.81-19.81,19.81s-19.81-8.87-19.81-19.81,8.87-19.81,19.81-19.81,19.81,8.87,19.81,19.81Z"/>
          </g>
          <g id="g88">
            <path id="path90" class="st1" d="M196.33,35.03l-47.3,3.64-.68,77.49-27.61,107.46"/>
          </g>
          <g id="g92">
            <path id="path94" class="st1" d="M149.03,38.67l-15.36,49.31L53.04,52.5l62.03-30.81"/>
          </g>
          <g id="g96">
            <path id="path98" class="st1" d="M185.41,79.9l16.98,42.85"/>
          </g>
          <g id="g100">
            <path id="path102" class="st1" d="M51.61,85.15L2.3,187.02l118.44,36.6-52.55-70.96"/>
          </g>
          <g id="g104">
            <path id="path106" class="st1" d="M133.67,87.98l51.74-8.08-37.07,36.26,33.43,69.25-61.04,38.22L51.61,85.15l16.57,67.51,90.55,8.89"/>
          </g>
          <g id="g108">
            <path id="path110" class="st4" d="M213.12,122.75c0,5.93-4.81,10.73-10.73,10.73s-10.73-4.81-10.73-10.73,4.8-10.73,10.73-10.73,10.73,4.81,10.73,10.73"/>
          </g>
          <g id="g112">
            <path id="path114" class="st2" d="M213.12,122.75c0,5.93-4.81,10.73-10.73,10.73s-10.73-4.81-10.73-10.73,4.8-10.73,10.73-10.73,10.73,4.81,10.73,10.73Z"/>
          </g>
          <g id="g116">
            <path id="path118" class="st4" d="M124.45,21.69c0,5.18-4.2,9.37-9.37,9.37s-9.37-4.2-9.37-9.37,4.19-9.37,9.37-9.37,9.37,4.2,9.37,9.37"/>
          </g>
          <g id="g120">
            <path id="path122" class="st2" d="M124.45,21.69c0,5.18-4.2,9.37-9.37,9.37s-9.37-4.2-9.37-9.37,4.19-9.37,9.37-9.37,9.37,4.2,9.37,9.37Z"/>
          </g>
          <g id="g124">
            <path id="path126" class="st4" d="M165.96,161.55c0,3.99-3.23,7.23-7.23,7.23s-7.23-3.24-7.23-7.23,3.24-7.23,7.23-7.23,7.23,3.24,7.23,7.23"/>
          </g>
          <g id="g128">
            <path id="path130" class="st2" d="M165.96,161.55c0,3.99-3.23,7.23-7.23,7.23s-7.23-3.24-7.23-7.23,3.24-7.23,7.23-7.23,7.23,3.24,7.23,7.23Z"/>
          </g>
          <g id="g132">
            <path id="path134" class="st4" d="M171.92,116.16c0-13.02-10.55-23.57-23.57-23.57s-23.57,10.55-23.57,23.57,10.56,23.57,23.57,23.57,23.57-10.55,23.57-23.57"/>
          </g>
          <g id="g136">
            <path id="path138" class="st2" d="M171.92,116.16c0-13.02-10.55-23.57-23.57-23.57s-23.57,10.55-23.57,23.57,10.56,23.57,23.57,23.57,23.57-10.55,23.57-23.57h0Z"/>
          </g>
          <g id="g140">
            <path id="path142" class="st4" d="M137.71,223.62c0,9.38-7.6,16.98-16.97,16.98s-16.98-7.6-16.98-16.98,7.6-16.97,16.98-16.97,16.97,7.6,16.97,16.97"/>
          </g>
          <g id="g144">
            <path id="path146" class="st2" d="M137.71,223.62c0,9.38-7.6,16.98-16.97,16.98s-16.98-7.6-16.98-16.98,7.6-16.97,16.98-16.97,16.97,7.6,16.97,16.97Z"/>
          </g>
          <g id="g148">
            <path id="path150" class="st4" d="M196.74,185.4c0,8.26-6.7,14.96-14.96,14.96s-14.96-6.7-14.96-14.96,6.7-14.96,14.96-14.96,14.96,6.7,14.96,14.96"/>
          </g>
          <g id="g152">
            <path id="path154" class="st2" d="M196.74,185.4c0,8.26-6.7,14.96-14.96,14.96s-14.96-6.7-14.96-14.96,6.7-14.96,14.96-14.96,14.96,6.7,14.96,14.96Z"/>
          </g>
          <g id="g156">
            <path id="path158" class="st4" d="M165.2,38.66c0,8.93-7.24,16.17-16.17,16.17s-16.17-7.24-16.17-16.17,7.24-16.17,16.17-16.17,16.17,7.24,16.17,16.17"/>
          </g>
          <g id="g160">
            <path id="path162" class="st2" d="M165.2,38.66c0,8.93-7.24,16.17-16.17,16.17s-16.17-7.24-16.17-16.17,7.24-16.17,16.17-16.17,16.17,7.24,16.17,16.17Z"/>
          </g>
          <g id="g164">
            <path id="path166" class="st4" d="M21.29,187.02c0,10.49-8.51,19-19,19s-19-8.5-19-19,8.51-19,19-19,19,8.5,19,19"/>
          </g>
          <g id="g168">
            <path id="path170" class="st2" d="M21.29,187.02c0,10.49-8.51,19-19,19s-19-8.5-19-19,8.51-19,19-19,19,8.5,19,19Z"/>
          </g>
          <g id="g172">
            <path id="path174" class="st4" d="M210.48,35.03c0,7.81-6.33,14.15-14.15,14.15s-14.15-6.33-14.15-14.15,6.33-14.15,14.15-14.15,14.15,6.34,14.15,14.15"/>
          </g>
          <g id="g176">
            <path id="path178" class="st2" d="M210.48,35.03c0,7.81-6.33,14.15-14.15,14.15s-14.15-6.33-14.15-14.15,6.33-14.15,14.15-14.15,14.15,6.34,14.15,14.15Z"/>
          </g>
          <g id="g180">
            <path id="path182" class="st4" d="M205.63,79.9c0,11.16-9.05,20.21-20.21,20.21s-20.21-9.05-20.21-20.21,9.05-20.21,20.21-20.21,20.21,9.05,20.21,20.21"/>
          </g>
          <g id="g184">
            <path id="path186" class="st2" d="M205.63,79.9c0,11.16-9.05,20.21-20.21,20.21s-20.21-9.05-20.21-20.21,9.05-20.21,20.21-20.21,20.21,9.05,20.21,20.21Z"/>
          </g>
          <g id="g188">
            <path id="path190" class="st4" d="M85.16,152.66c0,9.37-7.6,16.97-16.98,16.97s-16.98-7.6-16.98-16.97,7.6-16.98,16.98-16.98,16.98,7.6,16.98,16.98"/>
          </g>
          <g id="g192">
            <path id="path194" class="st2" d="M85.16,152.66c0,9.37-7.6,16.97-16.98,16.97s-16.98-7.6-16.98-16.97,7.6-16.98,16.98-16.98,16.98,7.6,16.98,16.98Z"/>
          </g>
        </g>
      </g>
    </g>
  </g>
</svg>