<?xml version="1.0" encoding="UTF-8" standalone="no"?>
<svg
   xmlns:dc="http://purl.org/dc/elements/1.1/"
   xmlns:cc="http://creativecommons.org/ns#"
   xmlns:rdf="http://www.w3.org/1999/02/22-rdf-syntax-ns#"
   xmlns:svg="http://www.w3.org/2000/svg"
   xmlns="http://www.w3.org/2000/svg"
   viewBox="0 0 231.55067 307.96133"
   height="307.96133"
   width="231.55067"
   xml:space="preserve"
   id="svg2"
   version="1.1"><metadata
     id="metadata8"><rdf:RDF><cc:Work
         rdf:about=""><dc:format>image/svg+xml</dc:format><dc:type
           rdf:resource="http://purl.org/dc/dcmitype/StillImage" /></cc:Work></rdf:RDF></metadata><defs
     id="defs6"><clipPath
       id="clipPath18"
       clipPathUnits="userSpaceOnUse"><path
         id="path16"
         d="M 0,230.971 H 173.663 V 0 H 0 Z" /></clipPath><clipPath
       id="clipPath62"
       clipPathUnits="userSpaceOnUse"><path
         id="path60"
         d="m 21.407,225.784 c -8.084,0 -14.702,-6.615 -14.702,-14.703 v 0 -131.968 c 0,-8.086 6.618,-14.704 14.702,-14.704 v 0 h 131.97 c 8.087,0 14.703,6.618 14.703,14.704 v 0 131.968 c 0,8.088 -6.616,14.703 -14.703,14.703 v 0 z" /></clipPath></defs><g
     transform="matrix(1.3333333,0,0,-1.3333333,0,307.96133)"
     id="g10"><g
       id="g12"><g
         clip-path="url(#clipPath18)"
         id="g14"><g
           transform="translate(8.6548,37.8458)"
           id="g20"><path
             id="path22"
             style="fill:#4d3b56;fill-opacity:1;fill-rule:nonzero;stroke:none"
             d="M 0,0 C 0,7.787 3.593,11.806 11.465,11.806 H 28.238 V 9.155 H 11.894 C 5.646,9.155 2.566,6.761 2.566,0.338 v -19.506 c 0,-6.936 3.85,-9.591 10.354,-9.591 h 15.49 v -2.566 H 12.751 C 4.707,-31.325 0,-28.069 0,-19.513 Z" /></g><g
           transform="translate(8.6548,37.8458)"
           id="g24"><path
             id="path26"
             style="fill:none;stroke:#4d3b56;stroke-width:1.72899997;stroke-linecap:butt;stroke-linejoin:miter;stroke-miterlimit:4;stroke-dasharray:none;stroke-opacity:1"
             d="M 0,0 C 0,7.787 3.593,11.806 11.465,11.806 H 28.238 V 9.155 H 11.894 C 5.646,9.155 2.566,6.761 2.566,0.338 v -19.506 c 0,-6.936 3.85,-9.591 10.354,-9.591 h 15.49 v -2.566 H 12.751 C 4.707,-31.325 0,-28.069 0,-19.513 Z" /></g><g
           transform="translate(55.9761,9.0871)"
           id="g28"><path
             id="path30"
             style="fill:#4d3b56;fill-opacity:1;fill-rule:nonzero;stroke:none"
             d="m 0,0 h 13.265 c 5.393,0 8.302,3.087 8.302,8.477 v 15.23 H -0.172 c -5.306,0 -8.557,-3.594 -8.557,-8.727 V 8.646 C -8.729,3.344 -5.306,0 0,0 m -11.296,14.893 c 0,6.848 4.278,11.299 11.212,11.299 h 21.732 v 2.824 c 0,5.814 -3.503,8.898 -9.238,8.898 h -23.622 v 2.65 h 22.339 c 8.213,0 13.007,-3.504 13.007,-12.062 V 9.071 c 0,-7.186 -3.425,-11.637 -10.953,-11.637 H 0.172 c -6.761,0 -11.468,4.106 -11.468,11.043 z" /></g><g
           transform="translate(55.9761,9.0871)"
           id="g32"><path
             id="path34"
             style="fill:none;stroke:#4d3b56;stroke-width:1.72899997;stroke-linecap:butt;stroke-linejoin:miter;stroke-miterlimit:4;stroke-dasharray:none;stroke-opacity:1"
             d="m 0,0 h 13.265 c 5.393,0 8.302,3.087 8.302,8.477 v 15.23 H -0.172 c -5.306,0 -8.557,-3.594 -8.557,-8.727 V 8.646 C -8.729,3.344 -5.306,0 0,0 Z m -11.296,14.893 c 0,6.848 4.278,11.299 11.212,11.299 h 21.732 v 2.824 c 0,5.814 -3.503,8.898 -9.238,8.898 h -23.622 v 2.65 h 22.339 c 8.213,0 13.007,-3.504 13.007,-12.062 V 9.071 c 0,-7.186 -3.425,-11.637 -10.953,-11.637 H 0.172 c -6.761,0 -11.468,4.106 -11.468,11.043 z" /></g><g
           transform="translate(99.8784,49.6515)"
           id="g36"><path
             id="path38"
             style="fill:#4d3b56;fill-opacity:1;fill-rule:nonzero;stroke:none"
             d="M 0,0 H 20.795 V -2.65 H 0.081 c -4.532,0 -9.239,-1.288 -9.239,-6.758 v -2.742 c 0,-6.335 4.106,-7.7 9.672,-7.7 h 10.353 c 8.814,0 9.672,-5.396 9.672,-12.414 0,-7.267 -3.168,-10.867 -10.442,-10.867 h -21.565 v 2.567 h 21.565 c 5.389,0 7.788,2.654 7.788,8.043 0,5.654 -0.426,9.929 -7.275,9.929 H 0.426 c -7.187,0 -12.063,2.486 -12.063,10.354 v 2.742 C -11.637,-2.566 -6.166,0 0,0" /></g><g
           transform="translate(99.8784,49.6515)"
           id="g40"><path
             id="path42"
             style="fill:none;stroke:#4d3b56;stroke-width:1.72899997;stroke-linecap:butt;stroke-linejoin:miter;stroke-miterlimit:4;stroke-dasharray:none;stroke-opacity:1"
             d="M 0,0 H 20.795 V -2.65 H 0.081 c -4.532,0 -9.239,-1.288 -9.239,-6.758 v -2.742 c 0,-6.335 4.106,-7.7 9.672,-7.7 h 10.353 c 8.814,0 9.672,-5.396 9.672,-12.414 0,-7.267 -3.168,-10.867 -10.442,-10.867 h -21.565 v 2.567 h 21.565 c 5.389,0 7.788,2.654 7.788,8.043 0,5.654 -0.426,9.929 -7.275,9.929 H 0.426 c -7.187,0 -12.063,2.486 -12.063,10.354 v 2.742 C -11.637,-2.566 -6.166,0 0,0 Z" /></g><g
           transform="translate(140.0981,9.0871)"
           id="g44"><path
             id="path46"
             style="fill:#4d3b56;fill-opacity:1;fill-rule:nonzero;stroke:none"
             d="m 0,0 h 13.265 c 5.389,0 8.301,3.087 8.301,8.477 v 15.23 H -0.169 c -5.309,0 -8.558,-3.594 -8.558,-8.727 V 8.646 C -8.727,3.344 -5.309,0 0,0 m -11.3,14.893 c 0,6.848 4.282,11.299 11.212,11.299 h 21.742 v 2.824 c 0,5.814 -3.514,8.898 -9.246,8.898 h -23.62 v 2.65 h 22.337 c 8.218,0 13.007,-3.504 13.007,-12.062 V 9.071 c 0,-7.186 -3.424,-11.637 -10.955,-11.637 H 0.169 C -6.592,-2.566 -11.3,1.54 -11.3,8.477 Z" /></g><g
           transform="translate(140.0981,9.0871)"
           id="g48"><path
             id="path50"
             style="fill:none;stroke:#4d3b56;stroke-width:1.72899997;stroke-linecap:butt;stroke-linejoin:miter;stroke-miterlimit:4;stroke-dasharray:none;stroke-opacity:1"
             d="m 0,0 h 13.265 c 5.389,0 8.301,3.087 8.301,8.477 v 15.23 H -0.169 c -5.309,0 -8.558,-3.594 -8.558,-8.727 V 8.646 C -8.727,3.344 -5.309,0 0,0 Z m -11.3,14.893 c 0,6.848 4.282,11.299 11.212,11.299 h 21.742 v 2.824 c 0,5.814 -3.514,8.898 -9.246,8.898 h -23.62 v 2.65 h 22.337 c 8.218,0 13.007,-3.504 13.007,-12.062 V 9.071 c 0,-7.186 -3.424,-11.637 -10.955,-11.637 H 0.169 C -6.592,-2.566 -11.3,1.54 -11.3,8.477 Z" /></g><g
           transform="translate(168.0801,79.1124)"
           id="g52"><path
             id="path54"
             style="fill:#4d3b56;fill-opacity:1;fill-rule:nonzero;stroke:none"
             d="m 0,0 c 0,-8.085 -6.615,-14.703 -14.703,-14.703 h -131.969 c -8.085,0 -14.703,6.618 -14.703,14.703 v 131.969 c 0,8.087 6.618,14.703 14.703,14.703 H -14.703 C -6.615,146.672 0,140.056 0,131.969 Z" /></g></g></g><g
       id="g56"><g
         clip-path="url(#clipPath62)"
         id="g58"><g
           transform="translate(52.4018,191.5988)"
           id="g64"><path
             id="path66"
             style="fill:#ffffff;fill-opacity:1;fill-rule:nonzero;stroke:none"
             d="m 0,0 c 0,-6.97 -5.65,-12.623 -12.622,-12.623 -6.972,0 -12.621,5.653 -12.621,12.623 0,6.971 5.649,12.624 12.621,12.624 C -5.65,12.624 0,6.971 0,0" /></g><g
           transform="translate(52.4018,191.5988)"
           id="g68"><path
             id="path70"
             style="fill:none;stroke:#4d3b56;stroke-width:1.72899997;stroke-linecap:butt;stroke-linejoin:miter;stroke-miterlimit:4;stroke-dasharray:none;stroke-opacity:1"
             d="m 0,0 c 0,-6.97 -5.65,-12.623 -12.622,-12.623 -6.972,0 -12.621,5.653 -12.621,12.623 0,6.971 5.649,12.624 12.621,12.624 C -5.65,12.624 0,6.971 0,0 Z" /></g><g
           transform="translate(115.4126,164.9816)"
           id="g72"><path
             id="path74"
             style="fill:#ffffff;fill-opacity:1;fill-rule:nonzero;stroke:none"
             d="m 0,0 c 0,-8.368 -6.784,-15.155 -15.159,-15.155 -8.372,0 -15.156,6.787 -15.156,15.155 0,8.375 6.784,15.163 15.156,15.163 C -6.784,15.163 0,8.375 0,0" /></g><g
           transform="translate(115.4126,164.9816)"
           id="g76"><path
             id="path78"
             style="fill:none;stroke:#4d3b56;stroke-width:1.72899997;stroke-linecap:butt;stroke-linejoin:miter;stroke-miterlimit:4;stroke-dasharray:none;stroke-opacity:1"
             d="m 0,0 c 0,-8.368 -6.784,-15.155 -15.159,-15.155 -8.372,0 -15.156,6.787 -15.156,15.155 0,8.375 6.784,15.163 15.156,15.163 C -6.784,15.163 0,8.375 0,0 Z" /></g><g
           transform="translate(53.5649,167.1056)"
           id="g80"><path
             id="path82"
             style="fill:#ffffff;fill-opacity:1;fill-rule:nonzero;stroke:none"
             d="m 0,0 c 0,-8.202 -6.651,-14.854 -14.855,-14.854 -8.205,0 -14.856,6.652 -14.856,14.854 0,8.203 6.651,14.855 14.856,14.855 C -6.651,14.855 0,8.203 0,0" /></g><g
           transform="translate(53.5649,167.1056)"
           id="g84"><path
             id="path86"
             style="fill:none;stroke:#4d3b56;stroke-width:1.72899997;stroke-linecap:butt;stroke-linejoin:miter;stroke-miterlimit:4;stroke-dasharray:none;stroke-opacity:1"
             d="m 0,0 c 0,-8.202 -6.651,-14.854 -14.855,-14.854 -8.205,0 -14.856,6.652 -14.856,14.854 0,8.203 6.651,14.855 14.856,14.855 C -6.651,14.855 0,8.203 0,0 Z" /></g><g
           transform="translate(147.2475,204.6984)"
           id="g88"><path
             id="path90"
             style="fill:none;stroke:#ffffff;stroke-width:1.72899997;stroke-linecap:butt;stroke-linejoin:miter;stroke-miterlimit:4;stroke-dasharray:none;stroke-opacity:1"
             d="m 0,0 -35.472,-2.729 -0.513,-58.117 -20.708,-80.598" /></g><g
           transform="translate(111.7759,201.9699)"
           id="g92"><path
             id="path94"
             style="fill:none;stroke:#ffffff;stroke-width:1.72899997;stroke-linecap:butt;stroke-linejoin:miter;stroke-miterlimit:4;stroke-dasharray:none;stroke-opacity:1"
             d="m 0,0 -11.522,-36.984 -60.474,26.613 46.526,23.105" /></g><g
           transform="translate(139.061,171.047)"
           id="g96"><path
             id="path98"
             style="fill:none;stroke:#ffffff;stroke-width:1.72899997;stroke-linecap:butt;stroke-linejoin:miter;stroke-miterlimit:4;stroke-dasharray:none;stroke-opacity:1"
             d="M 0,0 12.732,-32.136" /></g><g
           transform="translate(38.7095,167.1056)"
           id="g100"><path
             id="path102"
             style="fill:none;stroke:#ffffff;stroke-width:1.72899997;stroke-linecap:butt;stroke-linejoin:miter;stroke-miterlimit:4;stroke-dasharray:none;stroke-opacity:1"
             d="m 0,0 -36.986,-76.4 88.831,-27.452 -39.414,53.221" /></g><g
           transform="translate(100.2534,164.9855)"
           id="g104"><path
             id="path106"
             style="fill:none;stroke:#ffffff;stroke-width:1.72899997;stroke-linecap:butt;stroke-linejoin:miter;stroke-miterlimit:4;stroke-dasharray:none;stroke-opacity:1"
             d="M 0,0 38.808,6.062 11.009,-21.133 36.079,-73.067 -9.699,-101.731 -61.544,2.12 -49.113,-48.511 18.796,-55.18" /></g><g
           transform="translate(159.8437,138.9113)"
           id="g108"><path
             id="path110"
             style="fill:#ffffff;fill-opacity:1;fill-rule:nonzero;stroke:none"
             d="m 0,0 c 0,-4.447 -3.604,-8.051 -8.051,-8.051 -4.445,0 -8.047,3.604 -8.047,8.051 0,4.444 3.602,8.048 8.047,8.048 C -3.604,8.048 0,4.444 0,0" /></g><g
           transform="translate(159.8437,138.9113)"
           id="g112"><path
             id="path114"
             style="fill:none;stroke:#4d3b56;stroke-width:1.72899997;stroke-linecap:butt;stroke-linejoin:miter;stroke-miterlimit:4;stroke-dasharray:none;stroke-opacity:1"
             d="m 0,0 c 0,-4.447 -3.604,-8.051 -8.051,-8.051 -4.445,0 -8.047,3.604 -8.047,8.051 0,4.444 3.602,8.048 8.047,8.048 C -3.604,8.048 0,4.444 0,0 Z" /></g><g
           transform="translate(93.3374,214.7042)"
           id="g116"><path
             id="path118"
             style="fill:#ffffff;fill-opacity:1;fill-rule:nonzero;stroke:none"
             d="m 0,0 c 0,-3.883 -3.147,-7.031 -7.031,-7.031 -3.884,0 -7.028,3.148 -7.028,7.031 0,3.884 3.144,7.031 7.028,7.031 C -3.147,7.031 0,3.884 0,0" /></g><g
           transform="translate(93.3374,214.7042)"
           id="g120"><path
             id="path122"
             style="fill:none;stroke:#4d3b56;stroke-width:1.72899997;stroke-linecap:butt;stroke-linejoin:miter;stroke-miterlimit:4;stroke-dasharray:none;stroke-opacity:1"
             d="m 0,0 c 0,-3.883 -3.147,-7.031 -7.031,-7.031 -3.884,0 -7.028,3.148 -7.028,7.031 0,3.884 3.144,7.031 7.028,7.031 C -3.147,7.031 0,3.884 0,0 Z" /></g><g
           transform="translate(124.4731,109.8058)"
           id="g124"><path
             id="path126"
             style="fill:#ffffff;fill-opacity:1;fill-rule:nonzero;stroke:none"
             d="m 0,0 c 0,-2.996 -2.425,-5.424 -5.424,-5.424 -2.992,0 -5.423,2.428 -5.423,5.424 0,2.995 2.431,5.423 5.423,5.423 C -2.425,5.423 0,2.995 0,0" /></g><g
           transform="translate(124.4731,109.8058)"
           id="g128"><path
             id="path130"
             style="fill:none;stroke:#4d3b56;stroke-width:1.72899997;stroke-linecap:butt;stroke-linejoin:miter;stroke-miterlimit:4;stroke-dasharray:none;stroke-opacity:1"
             d="m 0,0 c 0,-2.996 -2.425,-5.424 -5.424,-5.424 -2.992,0 -5.423,2.428 -5.423,5.424 0,2.995 2.431,5.423 5.423,5.423 C -2.425,5.423 0,2.995 0,0 Z" /></g><g
           transform="translate(128.937,143.8527)"
           id="g132"><path
             id="path134"
             style="fill:#ffffff;fill-opacity:1;fill-rule:nonzero;stroke:none"
             d="m 0,0 c 0,9.763 -7.915,17.678 -17.675,17.678 -9.762,0 -17.679,-7.915 -17.679,-17.678 0,-9.764 7.917,-17.676 17.679,-17.676 C -7.915,-17.676 0,-9.764 0,0" /></g><g
           transform="translate(128.937,143.8527)"
           id="g136"><path
             id="path138"
             style="fill:none;stroke:#4d3b56;stroke-width:1.72899997;stroke-linecap:butt;stroke-linejoin:miter;stroke-miterlimit:4;stroke-dasharray:none;stroke-opacity:1"
             d="m 0,0 c 0,9.763 -7.915,17.678 -17.675,17.678 -9.762,0 -17.679,-7.915 -17.679,-17.678 0,-9.764 7.917,-17.676 17.679,-17.676 C -7.915,-17.676 0,-9.764 0,0 Z" /></g><g
           transform="translate(103.2856,63.254)"
           id="g140"><path
             id="path142"
             style="fill:#ffffff;fill-opacity:1;fill-rule:nonzero;stroke:none"
             d="m 0,0 c 0,-7.034 -5.7,-12.734 -12.731,-12.734 -7.035,0 -12.735,5.7 -12.735,12.734 0,7.031 5.7,12.731 12.735,12.731 C -5.7,12.731 0,7.031 0,0" /></g><g
           transform="translate(103.2856,63.254)"
           id="g144"><path
             id="path146"
             style="fill:none;stroke:#4d3b56;stroke-width:1.72899997;stroke-linecap:butt;stroke-linejoin:miter;stroke-miterlimit:4;stroke-dasharray:none;stroke-opacity:1"
             d="m 0,0 c 0,-7.034 -5.7,-12.734 -12.731,-12.734 -7.035,0 -12.735,5.7 -12.735,12.734 0,7.031 5.7,12.731 12.735,12.731 C -5.7,12.731 0,7.031 0,0 Z" /></g><g
           transform="translate(147.5513,91.9181)"
           id="g148"><path
             id="path150"
             style="fill:#ffffff;fill-opacity:1;fill-rule:nonzero;stroke:none"
             d="m 0,0 c 0,-6.193 -5.025,-11.219 -11.219,-11.219 -6.196,0 -11.218,5.026 -11.218,11.219 0,6.193 5.022,11.218 11.218,11.218 C -5.025,11.218 0,6.193 0,0" /></g><g
           transform="translate(147.5513,91.9181)"
           id="g152"><path
             id="path154"
             style="fill:none;stroke:#4d3b56;stroke-width:1.72899997;stroke-linecap:butt;stroke-linejoin:miter;stroke-miterlimit:4;stroke-dasharray:none;stroke-opacity:1"
             d="m 0,0 c 0,-6.193 -5.025,-11.219 -11.219,-11.219 -6.196,0 -11.218,5.026 -11.218,11.219 0,6.193 5.022,11.218 11.218,11.218 C -5.025,11.218 0,6.193 0,0 Z" /></g><g
           transform="translate(123.9018,201.9733)"
           id="g156"><path
             id="path158"
             style="fill:#ffffff;fill-opacity:1;fill-rule:nonzero;stroke:none"
             d="m 0,0 c 0,-6.7 -5.43,-12.13 -12.126,-12.13 -6.7,0 -12.127,5.43 -12.127,12.13 0,6.693 5.427,12.124 12.127,12.124 C -5.43,12.124 0,6.693 0,0" /></g><g
           transform="translate(123.9018,201.9733)"
           id="g160"><path
             id="path162"
             style="fill:none;stroke:#4d3b56;stroke-width:1.72899997;stroke-linecap:butt;stroke-linejoin:miter;stroke-miterlimit:4;stroke-dasharray:none;stroke-opacity:1"
             d="m 0,0 c 0,-6.7 -5.43,-12.13 -12.126,-12.13 -6.7,0 -12.127,5.43 -12.127,12.13 0,6.693 5.427,12.124 12.127,12.124 C -5.43,12.124 0,6.693 0,0 Z" /></g><g
           transform="translate(15.9712,90.7052)"
           id="g164"><path
             id="path166"
             style="fill:#ffffff;fill-opacity:1;fill-rule:nonzero;stroke:none"
             d="m 0,0 c 0,-7.871 -6.379,-14.247 -14.248,-14.247 -7.87,0 -14.251,6.376 -14.251,14.247 0,7.872 6.381,14.248 14.251,14.248 C -6.379,14.248 0,7.872 0,0" /></g><g
           transform="translate(15.9712,90.7052)"
           id="g168"><path
             id="path170"
             style="fill:none;stroke:#4d3b56;stroke-width:1.72899997;stroke-linecap:butt;stroke-linejoin:miter;stroke-miterlimit:4;stroke-dasharray:none;stroke-opacity:1"
             d="m 0,0 c 0,-7.871 -6.379,-14.247 -14.248,-14.247 -7.87,0 -14.251,6.376 -14.251,14.247 0,7.872 6.381,14.248 14.251,14.248 C -6.379,14.248 0,7.872 0,0 Z" /></g><g
           transform="translate(157.8574,204.6984)"
           id="g172"><path
             id="path174"
             style="fill:#ffffff;fill-opacity:1;fill-rule:nonzero;stroke:none"
             d="m 0,0 c 0,-5.859 -4.748,-10.61 -10.61,-10.61 -5.862,0 -10.61,4.751 -10.61,10.61 0,5.859 4.748,10.614 10.61,10.614 C -4.748,10.614 0,5.859 0,0" /></g><g
           transform="translate(157.8574,204.6984)"
           id="g176"><path
             id="path178"
             style="fill:none;stroke:#4d3b56;stroke-width:1.72899997;stroke-linecap:butt;stroke-linejoin:miter;stroke-miterlimit:4;stroke-dasharray:none;stroke-opacity:1"
             d="m 0,0 c 0,-5.859 -4.748,-10.61 -10.61,-10.61 -5.862,0 -10.61,4.751 -10.61,10.61 0,5.859 4.748,10.614 10.61,10.614 C -4.748,10.614 0,5.859 0,0 Z" /></g><g
           transform="translate(154.2207,171.047)"
           id="g180"><path
             id="path182"
             style="fill:#ffffff;fill-opacity:1;fill-rule:nonzero;stroke:none"
             d="m 0,0 c 0,-8.372 -6.788,-15.159 -15.16,-15.159 -8.371,0 -15.159,6.787 -15.159,15.159 0,8.375 6.788,15.159 15.159,15.159 C -6.788,15.159 0,8.375 0,0" /></g><g
           transform="translate(154.2207,171.047)"
           id="g184"><path
             id="path186"
             style="fill:none;stroke:#4d3b56;stroke-width:1.72899997;stroke-linecap:butt;stroke-linejoin:miter;stroke-miterlimit:4;stroke-dasharray:none;stroke-opacity:1"
             d="m 0,0 c 0,-8.372 -6.788,-15.159 -15.16,-15.159 -8.371,0 -15.159,6.787 -15.159,15.159 0,8.375 6.788,15.159 15.159,15.159 C -6.788,15.159 0,8.375 0,0 Z" /></g><g
           transform="translate(63.8735,116.4747)"
           id="g188"><path
             id="path190"
             style="fill:#ffffff;fill-opacity:1;fill-rule:nonzero;stroke:none"
             d="m 0,0 c 0,-7.03 -5.701,-12.73 -12.733,-12.73 -7.033,0 -12.733,5.7 -12.733,12.73 0,7.034 5.7,12.735 12.733,12.735 C -5.701,12.735 0,7.034 0,0" /></g><g
           transform="translate(63.8735,116.4747)"
           id="g192"><path
             id="path194"
             style="fill:none;stroke:#4d3b56;stroke-width:1.72899997;stroke-linecap:butt;stroke-linejoin:miter;stroke-miterlimit:4;stroke-dasharray:none;stroke-opacity:1"
             d="m 0,0 c 0,-7.03 -5.701,-12.73 -12.733,-12.73 -7.033,0 -12.733,5.7 -12.733,12.73 0,7.034 5.7,12.735 12.733,12.735 C -5.701,12.735 0,7.034 0,0 Z" /></g></g></g></g></svg>